# Blender v2.92.0 OBJ File: 'resourceObj.blend'
# www.blender.org
mtllib resourceObj.mtl
o Icosphere
v 0.000000 -0.623112 0.000000
v 0.500458 -0.353650 0.391821
v -0.111129 -0.352201 0.416480
v -0.453608 -0.313303 0.000000
v -0.101229 -0.352688 -0.373712
v 0.331577 -0.348864 -0.229801
v 0.099135 0.317161 0.593101
v -0.503720 0.293562 0.368003
v -0.445064 0.363252 -0.342330
v 0.199963 0.284558 -0.525235
v 0.641024 0.331575 0.033334
v 0.000000 0.556978 0.000000
v -0.162456 -0.850654 0.499995
v 0.425323 -0.850654 0.309011
v 0.262869 -0.525738 0.809012
v 0.850648 -0.525736 0.000000
v 0.425323 -0.850654 -0.309011
v -0.525730 -0.850652 0.000000
v -0.688189 -0.525736 0.499997
v -0.162456 -0.850654 -0.499995
v -0.688189 -0.525736 -0.499997
v 0.262869 -0.525738 -0.809012
v 0.951058 0.000000 0.309013
v 0.951058 0.000000 -0.309013
v 0.000000 0.000000 1.000000
v 0.587786 0.000000 0.809017
v -0.951058 0.000000 0.309013
v -0.587786 0.000000 0.809017
v -0.587786 0.000000 -0.809017
v -0.951058 0.000000 -0.309013
v 0.587786 0.000000 -0.809017
v 0.000000 0.000000 -1.000000
v 0.688189 0.525736 0.499997
v -0.262869 0.525738 0.809012
v -0.850648 0.525736 0.000000
v -0.262869 0.525738 -0.809012
v 0.688189 0.525736 -0.499997
v 0.162456 0.850654 0.499995
v 0.525730 0.850652 0.000000
v -0.425323 0.850654 0.309011
v -0.425323 0.850654 -0.309011
v 0.162456 0.850654 -0.499995
vt 0.818181 0.000000
vt 0.772726 0.078731
vt 0.863635 0.078731
vt 0.727272 0.157461
vt 0.681818 0.078731
vt 0.636363 0.157461
vt 0.090909 0.000000
vt 0.045454 0.078731
vt 0.136363 0.078731
vt 0.272727 0.000000
vt 0.227273 0.078731
vt 0.318182 0.078731
vt 0.454545 0.000000
vt 0.409090 0.078731
vt 0.500000 0.078731
vt 0.681818 0.236191
vt 0.909090 0.157461
vt 0.818181 0.157461
vt 0.863635 0.236191
vt 0.181818 0.157461
vt 0.090909 0.157461
vt 0.136363 0.236191
vt 0.363636 0.157461
vt 0.272727 0.157461
vt 0.318182 0.236191
vt 0.545454 0.157461
vt 0.454545 0.157461
vt 0.500000 0.236191
vt 0.772726 0.236191
vt 0.954545 0.236191
vt 0.227273 0.236191
vt 0.409090 0.236191
vt 0.590909 0.236191
vt 0.818181 0.314921
vt 0.727272 0.314921
vt 0.772726 0.393651
vt 1.000000 0.314921
vt 0.909091 0.314921
vt 0.954545 0.393651
vt 0.272727 0.314921
vt 0.181818 0.314921
vt 0.227273 0.393651
vt 0.454545 0.314921
vt 0.363636 0.314921
vt 0.409090 0.393651
vt 0.636363 0.314921
vt 0.545454 0.314921
vt 0.590909 0.393651
vt 0.500000 0.393651
vt 0.545454 0.472382
vt 0.318182 0.393651
vt 0.363636 0.472382
vt 0.136363 0.393651
vt 0.181818 0.472382
vt 0.090909 0.314921
vt 0.863635 0.393651
vt 0.909090 0.472382
vt 0.681818 0.393651
vt 0.727272 0.472382
vt 0.045454 0.236191
vt 0.000000 0.157461
vt 0.590909 0.078731
vt 0.636363 0.000000
vn -0.1458 -0.8817 -0.4486
vn 0.6776 -0.2194 0.7020
vn 0.3816 -0.8817 -0.2773
vn 0.3816 -0.8817 0.2773
vn -0.1458 -0.8817 0.4486
vn 0.5221 -0.5041 0.6880
vn -0.7200 -0.5249 0.4539
vn -0.6625 -0.5253 -0.5340
vn 0.3240 -0.5246 -0.7873
vn 0.8491 -0.5248 0.0595
vn 0.6034 -0.6661 0.4384
vn -0.1732 -0.8283 0.5329
vn -0.5329 -0.8462 0.0000
vn -0.1638 -0.8480 -0.5040
vn 0.4346 -0.8434 -0.3158
vn 0.0987 0.1597 0.9822
vn -0.8997 0.1692 0.4023
vn -0.6245 0.0784 -0.7771
vn 0.5488 0.0735 -0.8327
vn 0.9603 0.2240 0.1665
vn -0.4597 0.8229 0.3340
vn 0.4911 0.7947 -0.3568
vn 0.0287 0.0464 -0.9985
vn 0.1756 0.8229 0.5404
vn -0.1876 0.7947 -0.5773
vn -0.9368 0.0615 -0.3443
vn 0.5682 0.8229 0.0000
vn -0.6071 0.7947 0.0000
vn -0.6611 0.1704 0.7307
vn 0.1756 0.8229 -0.5404
vn -0.1876 0.7947 0.5773
vn 0.5446 0.0810 0.8348
vn -0.4597 0.8229 -0.3340
vn 0.4911 0.7947 0.3568
vn 0.9624 0.2021 -0.1814
vn 0.8239 0.5052 0.2568
vn 0.7947 0.1876 -0.5773
vn -0.2169 0.5251 -0.8229
vn 0.6267 0.5232 -0.5775
vn -0.3035 0.1876 -0.9342
vn -0.8414 0.5200 -0.1474
vn -0.4209 0.5181 -0.7446
vn -0.9822 0.1876 0.0000
vn -0.4361 0.5164 0.7370
vn -0.8360 0.5167 0.1846
vn -0.3035 0.1876 0.9342
vn 0.6383 0.5240 0.5639
vn -0.0460 0.5127 0.8573
vn 0.7947 0.1876 0.5773
vn 0.8078 0.5108 -0.2942
vn 0.1822 0.8076 -0.5608
vn 0.3035 -0.1876 -0.9342
vn -0.7446 -0.5230 -0.4149
vn -0.5516 0.7316 -0.4007
vn -0.7947 -0.1876 -0.5773
vn -0.6625 -0.5253 0.5340
vn -0.5402 0.7444 0.3925
vn -0.7947 -0.1876 0.5773
vn 0.2746 -0.5257 0.8051
vn 0.2054 0.7470 0.6323
vn 0.3035 -0.1876 0.9342
vn 0.8217 -0.5079 0.2585
vn 0.7304 0.6830 0.0000
vn 0.9822 -0.1876 0.0000
vn 0.1890 -0.5242 -0.8304
vn 0.9619 0.2077 -0.1775
vn 0.1876 -0.7947 -0.5773
vn -0.6887 0.2566 -0.6781
vn 0.1404 0.2271 -0.9637
vn -0.4911 -0.7947 -0.3568
vn -0.9175 0.1231 0.3781
vn -0.9175 0.1231 -0.3781
vn -0.4911 -0.7947 0.3568
vn 0.0957 0.1549 0.9833
vn 0.4569 0.2214 -0.8616
vn 0.6071 -0.7947 0.0000
vn -0.4717 -0.8817 0.0000
vn -0.6677 0.1894 0.7199
vn 0.1876 -0.7947 0.5773
vn 0.8845 -0.2036 0.4197
usemtl None
s off
f 1/1/1 14/2/1 13/3/1
f 2/4/2 14/5/2 16/6/2
f 1/7/3 13/8/3 18/9/3
f 1/10/4 18/11/4 20/12/4
f 1/13/5 20/14/5 17/15/5
f 2/4/6 16/6/6 23/16/6
f 3/17/7 15/18/7 25/19/7
f 4/20/8 19/21/8 27/22/8
f 5/23/9 21/24/9 29/25/9
f 6/26/10 22/27/10 31/28/10
f 2/4/11 23/16/11 26/29/11
f 3/17/12 25/19/12 28/30/12
f 4/20/13 27/22/13 30/31/13
f 5/23/14 29/25/14 32/32/14
f 6/26/15 31/28/15 24/33/15
f 7/34/16 33/35/16 38/36/16
f 8/37/17 34/38/17 40/39/17
f 9/40/18 35/41/18 41/42/18
f 10/43/19 36/44/19 42/45/19
f 11/46/20 37/47/20 39/48/20
f 39/48/21 42/49/21 12/50/21
f 39/48/22 37/47/22 42/49/22
f 37/47/23 10/43/23 42/49/23
f 42/45/24 41/51/24 12/52/24
f 42/45/25 36/44/25 41/51/25
f 36/44/26 9/40/26 41/51/26
f 41/42/27 40/53/27 12/54/27
f 41/42/28 35/41/28 40/53/28
f 35/41/29 8/55/29 40/53/29
f 40/39/30 38/56/30 12/57/30
f 40/39/31 34/38/31 38/56/31
f 34/38/32 7/34/32 38/56/32
f 38/36/33 39/58/33 12/59/33
f 38/36/34 33/35/34 39/58/34
f 33/35/35 11/46/35 39/58/35
f 24/33/36 37/47/36 11/46/36
f 24/33/37 31/28/37 37/47/37
f 31/28/38 10/43/38 37/47/38
f 32/32/39 36/44/39 10/43/39
f 32/32/40 29/25/40 36/44/40
f 29/25/41 9/40/41 36/44/41
f 30/31/42 35/41/42 9/40/42
f 30/31/43 27/22/43 35/41/43
f 27/22/44 8/55/44 35/41/44
f 28/30/45 34/38/45 8/37/45
f 28/30/46 25/19/46 34/38/46
f 25/19/47 7/34/47 34/38/47
f 26/29/48 33/35/48 7/34/48
f 26/29/49 23/16/49 33/35/49
f 23/16/50 11/46/50 33/35/50
f 31/28/51 32/32/51 10/43/51
f 31/28/52 22/27/52 32/32/52
f 22/27/53 5/23/53 32/32/53
f 29/25/54 30/31/54 9/40/54
f 29/25/55 21/24/55 30/31/55
f 21/24/56 4/20/56 30/31/56
f 27/22/57 28/60/57 8/55/57
f 27/22/58 19/21/58 28/60/58
f 19/21/59 3/61/59 28/60/59
f 25/19/60 26/29/60 7/34/60
f 25/19/61 15/18/61 26/29/61
f 15/18/62 2/4/62 26/29/62
f 23/16/63 24/33/63 11/46/63
f 23/16/64 16/6/64 24/33/64
f 16/6/65 6/26/65 24/33/65
f 17/15/66 22/27/66 6/26/66
f 17/15/67 20/14/67 22/27/67
f 20/14/68 5/23/68 22/27/68
f 20/12/69 21/24/69 5/23/69
f 20/12/70 18/11/70 21/24/70
f 18/11/71 4/20/71 21/24/71
f 18/9/72 19/21/72 4/20/72
f 18/9/73 13/8/73 19/21/73
f 13/8/74 3/61/74 19/21/74
f 16/6/75 17/62/75 6/26/75
f 16/6/76 14/5/76 17/62/76
f 14/5/77 1/63/77 17/62/77
f 13/3/78 15/18/78 3/17/78
f 13/3/79 14/2/79 15/18/79
f 14/2/80 2/4/80 15/18/80
